<svg width="37" height="38" viewBox="0 0 37 38" fill="none" xmlns="http://www.w3.org/2000/svg">
<rect x="0.32004" y="1.11106" width="36.3913" height="36.3913" rx="18.1956" fill="white"/>
<rect x="0.32004" y="1.11106" width="36.3913" height="36.3913" rx="18.1956" stroke="black" stroke-width="0.449275"/>
<path d="M18.5155 19.3068C17.28 19.3068 16.2223 18.8669 15.3425 17.987C14.4627 17.1072 14.0228 16.0495 14.0228 14.814C14.0228 13.5785 14.4627 12.5209 15.3425 11.641C16.2223 10.7612 17.28 10.3213 18.5155 10.3213C19.751 10.3213 20.8087 10.7612 21.6885 11.641C22.5684 12.5209 23.0083 13.5785 23.0083 14.814C23.0083 16.0495 22.5684 17.1072 21.6885 17.987C20.8087 18.8669 19.751 19.3068 18.5155 19.3068ZM9.53003 28.2923V25.1474C9.53003 24.5109 9.69383 23.9259 10.0214 23.3924C10.349 22.8589 10.7843 22.4517 11.3271 22.1709C12.4878 21.5906 13.6671 21.1554 14.8652 20.8652C16.0632 20.575 17.28 20.43 18.5155 20.43C19.751 20.43 20.9678 20.575 22.1659 20.8652C23.3639 21.1554 24.5433 21.5906 25.7039 22.1709C26.2468 22.4517 26.682 22.8589 27.0096 23.3924C27.3372 23.9259 27.501 24.5109 27.501 25.1474V28.2923H9.53003ZM11.7764 26.0459H25.2546V25.1474C25.2546 24.9414 25.2032 24.7542 25.1002 24.5858C24.9972 24.4173 24.8615 24.2862 24.693 24.1926C23.6822 23.6872 22.662 23.3081 21.6324 23.0554C20.6028 22.8027 19.5638 22.6763 18.5155 22.6763C17.4672 22.6763 16.4283 22.8027 15.3987 23.0554C14.3691 23.3081 13.3489 23.6872 12.338 24.1926C12.1695 24.2862 12.0338 24.4173 11.9308 24.5858C11.8279 24.7542 11.7764 24.9414 11.7764 25.1474V26.0459ZM18.5155 17.0604C19.1333 17.0604 19.6621 16.8405 20.102 16.4005C20.5419 15.9606 20.7619 15.4318 20.7619 14.814C20.7619 14.1963 20.5419 13.6674 20.102 13.2275C19.6621 12.7876 19.1333 12.5677 18.5155 12.5677C17.8978 12.5677 17.3689 12.7876 16.929 13.2275C16.4891 13.6674 16.2691 14.1963 16.2691 14.814C16.2691 15.4318 16.4891 15.9606 16.929 16.4005C17.3689 16.8405 17.8978 17.0604 18.5155 17.0604Z" fill="#1D1B20"/>
</svg>
